<svg width="260" height="229" viewBox="0 0 260 229" fill="none" xmlns="http://www.w3.org/2000/svg">
<path d="M80.222 23.0389C81.722 20.0388 81.722 7.0389 81.722 0.540124C81.722 -0.961182 38.722 40.0386 37.722 40.0401C36.722 40.0416 38.222 13.54 37.722 13.5401C37.222 13.5403 22.2027 27.8068 21.722 33.5401V93.5401C21.722 98.5401 38.222 107.542 38.722 107.54C39.222 107.538 38.222 80.5401 39.722 69.5384C40.839 58.3698 41.222 59.0389 80.222 23.0389Z" fill="#B87333"/>
<path d="M179.222 23.0778C177.722 20.0778 177.722 7.07784 177.722 0.579065C177.722 -0.922242 220.722 40.0776 221.722 40.0791C222.722 40.0806 221.222 13.5789 221.722 13.5791C222.222 13.5792 237.241 27.8457 237.722 33.5791V93.5791C237.722 98.5791 221.222 107.581 220.722 107.579C220.222 107.577 221.222 80.5791 219.722 69.5774C218.605 58.4087 218.222 59.0778 179.222 23.0778Z" fill="#B87333"/>
<path d="M48.9067 154.758C51.2221 152.038 70.5377 163.487 80.2221 167.038C95.222 173.039 100.222 197.539 96.2222 193.538C84.7222 190.038 85.2222 192.538 71.9061 190.258C52.7221 184.038 48.0912 155.978 48.9067 154.758Z" fill="#B87333"/>
<path d="M210.531 155.27C208.216 152.55 188.9 163.999 179.216 167.55C164.216 173.551 159.216 198.051 163.216 194.05C174.716 190.55 174.216 193.05 187.532 190.77C206.716 184.55 211.347 156.49 210.531 155.27Z" fill="#B87333"/>
<path d="M123.722 205.038C122.722 207.538 110.222 227.538 108.722 227.538C107.222 227.538 103.722 195.038 100.222 184.038C96.7222 173.038 88.2222 166.038 86.2222 164.038C84.2222 162.038 17.0606 118.226 11.2222 113.538C5.38374 108.851 0.722133 105.038 0.72215 96.5383C0.722168 88.0383 0.222304 65.5383 0.72215 65.5383C1.222 65.5383 14.222 74.9977 14.222 78.5383V78.5525C14.222 82.0999 14.222 89.9383 15.722 93.5383C18.222 99.5383 20.6972 100.748 25.222 104.038C28.6595 106.538 55.9343 126.038 56.2221 126.038C56.5099 126.038 55.7221 67.0383 56.222 62.0383C56.7219 57.0383 69.2224 47.5383 69.2222 48.5383C69.222 49.5383 68.7224 73.5383 69.2222 73.5383C69.722 73.5383 105.222 38.0388 106.222 38.0383C107.222 38.0378 106.722 39.5378 106.222 51.0383C106.222 66.5388 73.6589 79.0388 71.2222 98.5383C70.4232 104.932 70.722 115.539 70.722 115.539C70.722 135.539 85.7513 146.039 93.2222 149.538C100.693 153.038 106.722 159.538 110.222 168.038C113.722 176.539 124.722 202.538 123.722 205.038Z" fill="#9E3A3E"/>
<path d="M123.722 205C122.722 207.5 110.222 227.5 108.722 227.5C107.222 227.5 103.722 195 100.222 184C96.7222 173 88.2222 166 86.2222 164C84.2222 162 17.0606 118.187 11.2222 113.5C5.38374 108.812 0.722133 105 0.72215 96.4999C0.722168 87.9999 0.222304 65.4999 0.72215 65.4999C1.222 65.4999 14.222 74.9593 14.222 78.4999V78.5141C14.222 82.0615 14.222 89.8998 15.722 93.4999C18.222 99.4999 20.6972 100.709 25.222 104C28.6595 106.5 55.9343 126 56.2221 126C56.2221 126 84.7222 145.742 94.5 151C104.278 156.258 109.5 167.538 109.5 168.5C109.5 169.461 124.722 202.5 123.722 205Z" fill="#B87333"/>
<path d="M135.786 204.539C136.786 207.039 149.286 227.039 150.786 227.039C152.286 227.039 155.786 194.539 159.286 183.539C162.786 172.539 171.286 165.539 173.286 163.539C175.286 161.539 242.448 117.726 248.286 113.039C254.124 108.351 258.786 104.539 258.786 96.0388C258.786 87.5388 259.286 65.0388 258.786 65.0388C258.286 65.0388 245.286 74.4982 245.286 78.0388V78.053C245.286 81.6004 245.286 89.4388 243.786 93.0388C241.286 99.0388 238.811 100.248 234.286 103.539C230.849 106.039 203.574 125.539 203.286 125.539C202.998 125.539 203.786 66.5388 203.286 61.5388C202.786 56.5388 190.286 47.0388 190.286 48.0388C190.286 49.0388 190.786 73.0388 190.286 73.0388C189.786 73.0388 154.286 37.5393 153.286 37.5388C152.286 37.5383 152.786 39.0383 153.286 50.5388C153.286 66.0393 185.849 78.5393 188.286 98.0388C189.085 104.433 188.786 115.039 188.786 115.039C188.786 135.039 173.757 145.539 166.286 149.039C158.815 152.538 152.786 159.038 149.286 167.539C145.786 176.039 134.786 202.039 135.786 204.539Z" fill="#9E3A3E"/>
<path d="M151.918 153.568C140.918 166.068 133.418 199.039 132.918 199.039C132.418 199.039 131.918 183.568 132.918 161.068C132.918 146.539 154.418 132.568 159.918 129.068C165.418 125.568 165.114 122.597 166.418 117.068C167.722 111.539 170.026 91.5389 170.722 90.5388C173.722 90.5388 180.722 95.0388 181.222 106.039C181.722 117.039 181.365 120.539 181.222 122.539C179.722 143.539 162.918 141.068 151.918 153.568Z" fill="#9E3A3E"/>
<path d="M107.284 153.568C118.284 166.068 125.784 199.039 126.283 199.039C126.783 199.039 127.283 183.568 126.283 161.068C126.283 146.539 104.784 132.568 99.2834 129.068C93.7833 125.568 94.0873 122.597 92.7834 117.068C91.4795 111.539 89.1756 91.5389 88.4795 90.5388C85.4795 90.5388 78.4795 95.0388 77.9795 106.039C77.4795 117.039 77.8366 120.539 77.9795 122.539C79.4796 143.539 96.2836 141.068 107.284 153.568Z" fill="#9E3A3E"/>
<path d="M135.564 205C136.564 207.5 149.064 227.5 150.564 227.5C152.064 227.5 155.564 195 159.064 184C162.564 173 171.064 166 173.064 164C175.064 162 242.226 118.187 248.064 113.5C253.902 108.812 258.564 105 258.564 96.4999C258.564 87.9999 259.064 65.4999 258.564 65.4999C258.064 65.4999 245.064 74.9593 245.064 78.4999V78.5141C245.064 82.0615 245.064 89.8998 243.564 93.4999C241.064 99.4999 238.589 100.709 234.064 104C230.627 106.5 203.352 126 203.064 126L171 146.404C163.529 149.904 153.5 158.5 149.064 168C144.628 177.5 134.564 202.5 135.564 205Z" fill="#B87333"/>
<path d="M80.222 23.0389C81.722 20.0388 81.722 7.0389 81.722 0.540124C81.722 -0.961182 38.722 40.0386 37.722 40.0401C36.722 40.0416 38.222 13.54 37.722 13.5401C37.222 13.5403 22.2027 27.8068 21.722 33.5401V93.5401C21.722 98.5401 38.222 107.542 38.722 107.54C39.222 107.538 38.222 80.5401 39.722 69.5384C40.839 58.3698 41.222 59.0389 80.222 23.0389Z" stroke="#B87333"/>
<path d="M179.222 23.0778C177.722 20.0778 177.722 7.07784 177.722 0.579065C177.722 -0.922242 220.722 40.0776 221.722 40.0791C222.722 40.0806 221.222 13.5789 221.722 13.5791C222.222 13.5792 237.241 27.8457 237.722 33.5791V93.5791C237.722 98.5791 221.222 107.581 220.722 107.579C220.222 107.577 221.222 80.5791 219.722 69.5774C218.605 58.4087 218.222 59.0778 179.222 23.0778Z" stroke="#B87333"/>
<path d="M48.9067 154.758C51.2221 152.038 70.5377 163.487 80.2221 167.038C95.222 173.039 100.222 197.539 96.2222 193.538C84.7222 190.038 85.2222 192.538 71.9061 190.258C52.7221 184.038 48.0912 155.978 48.9067 154.758Z" stroke="#B87333"/>
<path d="M210.531 155.27C208.216 152.55 188.9 163.999 179.216 167.55C164.216 173.551 159.216 198.051 163.216 194.05C174.716 190.55 174.216 193.05 187.532 190.77C206.716 184.55 211.347 156.49 210.531 155.27Z" stroke="#B87333"/>
<path d="M123.722 205.038C122.722 207.538 110.222 227.538 108.722 227.538C107.222 227.538 103.722 195.038 100.222 184.038C96.7222 173.038 88.2222 166.038 86.2222 164.038C84.2222 162.038 17.0606 118.226 11.2222 113.538C5.38374 108.851 0.722133 105.038 0.72215 96.5383C0.722168 88.0383 0.222304 65.5383 0.72215 65.5383C1.222 65.5383 14.222 74.9977 14.222 78.5383V78.5525C14.222 82.0999 14.222 89.9383 15.722 93.5383C18.222 99.5383 20.6972 100.748 25.222 104.038C28.6595 106.538 55.9343 126.038 56.2221 126.038C56.5099 126.038 55.7221 67.0383 56.222 62.0383C56.7219 57.0383 69.2224 47.5383 69.2222 48.5383C69.222 49.5383 68.7224 73.5383 69.2222 73.5383C69.722 73.5383 105.222 38.0388 106.222 38.0383C107.222 38.0378 106.722 39.5378 106.222 51.0383C106.222 66.5388 73.6589 79.0388 71.2222 98.5383C70.4232 104.932 70.722 115.539 70.722 115.539C70.722 135.539 85.7513 146.039 93.2222 149.538C100.693 153.038 106.722 159.538 110.222 168.038C113.722 176.539 124.722 202.538 123.722 205.038Z" stroke="#B87333"/>
<path d="M123.722 205C122.722 207.5 110.222 227.5 108.722 227.5C107.222 227.5 103.722 195 100.222 184C96.7222 173 88.2222 166 86.2222 164C84.2222 162 17.0606 118.187 11.2222 113.5C5.38374 108.812 0.722133 105 0.72215 96.4999C0.722168 87.9999 0.222304 65.4999 0.72215 65.4999C1.222 65.4999 14.222 74.9593 14.222 78.4999V78.5141C14.222 82.0615 14.222 89.8998 15.722 93.4999C18.222 99.4999 20.6972 100.709 25.222 104C28.6595 106.5 55.9343 126 56.2221 126C56.2221 126 84.7222 145.742 94.5 151C104.278 156.258 109.5 167.538 109.5 168.5C109.5 169.461 124.722 202.5 123.722 205Z" stroke="#B87333"/>
<path d="M135.786 204.539C136.786 207.039 149.286 227.039 150.786 227.039C152.286 227.039 155.786 194.539 159.286 183.539C162.786 172.539 171.286 165.539 173.286 163.539C175.286 161.539 242.448 117.726 248.286 113.039C254.124 108.351 258.786 104.539 258.786 96.0388C258.786 87.5388 259.286 65.0388 258.786 65.0388C258.286 65.0388 245.286 74.4982 245.286 78.0388V78.053C245.286 81.6004 245.286 89.4388 243.786 93.0388C241.286 99.0388 238.811 100.248 234.286 103.539C230.849 106.039 203.574 125.539 203.286 125.539C202.998 125.539 203.786 66.5388 203.286 61.5388C202.786 56.5388 190.286 47.0388 190.286 48.0388C190.286 49.0388 190.786 73.0388 190.286 73.0388C189.786 73.0388 154.286 37.5393 153.286 37.5388C152.286 37.5383 152.786 39.0383 153.286 50.5388C153.286 66.0393 185.849 78.5393 188.286 98.0388C189.085 104.433 188.786 115.039 188.786 115.039C188.786 135.039 173.757 145.539 166.286 149.039C158.815 152.538 152.786 159.038 149.286 167.539C145.786 176.039 134.786 202.039 135.786 204.539Z" stroke="#B87333"/>
<path d="M151.918 153.568C140.918 166.068 133.418 199.039 132.918 199.039C132.418 199.039 131.918 183.568 132.918 161.068C132.918 146.539 154.418 132.568 159.918 129.068C165.418 125.568 165.114 122.597 166.418 117.068C167.722 111.539 170.026 91.5389 170.722 90.5388C173.722 90.5388 180.722 95.0388 181.222 106.039C181.722 117.039 181.365 120.539 181.222 122.539C179.722 143.539 162.918 141.068 151.918 153.568Z" stroke="#B87333"/>
<path d="M107.284 153.568C118.284 166.068 125.784 199.039 126.283 199.039C126.783 199.039 127.283 183.568 126.283 161.068C126.283 146.539 104.784 132.568 99.2834 129.068C93.7833 125.568 94.0873 122.597 92.7834 117.068C91.4795 111.539 89.1756 91.5389 88.4795 90.5388C85.4795 90.5388 78.4795 95.0388 77.9795 106.039C77.4795 117.039 77.8366 120.539 77.9795 122.539C79.4796 143.539 96.2836 141.068 107.284 153.568Z" stroke="#B87333"/>
<path d="M135.564 205C136.564 207.5 149.064 227.5 150.564 227.5C152.064 227.5 155.564 195 159.064 184C162.564 173 171.064 166 173.064 164C175.064 162 242.226 118.187 248.064 113.5C253.902 108.812 258.564 105 258.564 96.4999C258.564 87.9999 259.064 65.4999 258.564 65.4999C258.064 65.4999 245.064 74.9593 245.064 78.4999V78.5141C245.064 82.0615 245.064 89.8998 243.564 93.4999C241.064 99.4999 238.589 100.709 234.064 104C230.627 106.5 203.352 126 203.064 126L171 146.404C163.529 149.904 153.5 158.5 149.064 168C144.628 177.5 134.564 202.5 135.564 205Z" stroke="#B87333"/>
</svg>
